# xmcd
#
# Track frame offsets:
#	183
#	11040
#	24735
#	36300
#	49468
#	63563
#	78660
#	92520
#	106033
#	119255
#
# Disc length: 1751
#
# Revision: 3
# Processed by: cddbd v1.5.1PL0 Copyright (c) Steve Scherf et al.
# Submitted via: CDWizzard Release:4.20
# Normalized: r1:TDELIM( - ),TSWAP
#
DISCID=8106d50a
DTITLE=Various Artist - Blues Classics
DYEAR=1900
DGENRE=
TTITLE0=Jimmy Reed - Baby What Do You Want Me to Do
TTITLE1=B.B King - Sweet Little Angel
TTITLE2=John Lee Hooker - Boom Boom
TTITLE3=Muddy Waters - Mannish Boy
TTITLE4=Slim Harpo - I'm A King Bee
TTITLE5=Ray Charles - Drown In My Own Tears
TTITLE6=Howlin' Wolf - Smokestack Lightning
TTITLE7=Guitar Slim - The Things That I Used To Do
TTITLE8=Percy Mayfield - Please Send Me Someone To Love
TTITLE9=Bobby Blue Bland - I Pity The Fool
EXTD=
EXTT0=
EXTT1=
EXTT2=
EXTT3=
EXTT4=
EXTT5=
EXTT6=
EXTT7=
EXTT8=
EXTT9=
PLAYORDER=
